<svg width="165" height="44" viewBox="0 0 165 44" fill="none" xmlns="http://www.w3.org/2000/svg">
<rect width="165" height="44" rx="4" fill="#DB4444"/>
<path d="M55.152 22.288C55.7493 22.3947 56.256 22.7093 56.672 23.232C57.088 23.7547 57.296 24.3467 57.296 25.008C57.296 25.5733 57.1467 26.0853 56.848 26.544C56.56 26.992 56.1387 27.3493 55.584 27.616C55.0293 27.872 54.384 28 53.648 28H49.2V16.88H53.44C54.1973 16.88 54.848 17.008 55.392 17.264C55.936 17.52 56.3467 17.8667 56.624 18.304C56.9013 18.7307 57.04 19.2107 57.04 19.744C57.04 20.384 56.8693 20.9173 56.528 21.344C56.1867 21.7707 55.728 22.0853 55.152 22.288ZM51.024 21.552H53.28C53.8773 21.552 54.3413 21.4187 54.672 21.152C55.0133 20.8747 55.184 20.48 55.184 19.968C55.184 19.4667 55.0133 19.0773 54.672 18.8C54.3413 18.512 53.8773 18.368 53.28 18.368H51.024V21.552ZM53.488 26.512C54.1067 26.512 54.592 26.3627 54.944 26.064C55.296 25.7653 55.472 25.3493 55.472 24.816C55.472 24.272 55.2853 23.84 54.912 23.52C54.5387 23.2 54.0427 23.04 53.424 23.04H51.024V26.512H53.488ZM67.2621 19.184V28H65.4381V26.96C65.1501 27.3227 64.7715 27.6107 64.3021 27.824C63.8435 28.0267 63.3528 28.128 62.8301 28.128C62.1368 28.128 61.5128 27.984 60.9581 27.696C60.4141 27.408 59.9821 26.9813 59.6621 26.416C59.3528 25.8507 59.1981 25.168 59.1981 24.368V19.184H61.0061V24.096C61.0061 24.8853 61.2035 25.4933 61.5981 25.92C61.9928 26.336 62.5315 26.544 63.2141 26.544C63.8968 26.544 64.4355 26.336 64.8301 25.92C65.2355 25.4933 65.4381 24.8853 65.4381 24.096V19.184H67.2621ZM77.6048 19.184L72.1968 32.144H70.3088L72.1008 27.856L68.6288 19.184H70.6608L73.1408 25.904L75.7168 19.184H77.6048ZM92.2735 28H90.4495L84.9615 19.696V28H83.1375V16.864H84.9615L90.4495 25.152V16.864H92.2735V28ZM98.4928 28.144C97.6608 28.144 96.9088 27.9573 96.2368 27.584C95.5648 27.2 95.0368 26.6667 94.6528 25.984C94.2688 25.2907 94.0768 24.4907 94.0768 23.584C94.0768 22.688 94.2741 21.8933 94.6688 21.2C95.0634 20.5067 95.6021 19.9733 96.2848 19.6C96.9674 19.2267 97.7301 19.04 98.5728 19.04C99.4154 19.04 100.178 19.2267 100.861 19.6C101.543 19.9733 102.082 20.5067 102.477 21.2C102.871 21.8933 103.069 22.688 103.069 23.584C103.069 24.48 102.866 25.2747 102.461 25.968C102.055 26.6613 101.501 27.2 100.797 27.584C100.103 27.9573 99.3354 28.144 98.4928 28.144ZM98.4928 26.56C98.9621 26.56 99.3994 26.448 99.8048 26.224C100.221 26 100.557 25.664 100.813 25.216C101.069 24.768 101.197 24.224 101.197 23.584C101.197 22.944 101.074 22.4053 100.829 21.968C100.583 21.52 100.258 21.184 99.8528 20.96C99.4474 20.736 99.0101 20.624 98.5408 20.624C98.0714 20.624 97.6341 20.736 97.2288 20.96C96.8341 21.184 96.5194 21.52 96.2848 21.968C96.0501 22.4053 95.9328 22.944 95.9328 23.584C95.9328 24.5333 96.1728 25.2693 96.6528 25.792C97.1434 26.304 97.7568 26.56 98.4928 26.56ZM116.712 19.184L113.976 28H112.056L110.28 21.488L108.504 28H106.584L103.832 19.184H105.688L107.528 26.272L109.4 19.184H111.304L113.096 26.24L114.92 19.184H116.712Z" fill="#FAFAFA"/>
</svg>
