<svg width="126" height="30" viewBox="0 0 126 30" fill="none" xmlns="http://www.w3.org/2000/svg">
<g filter="url(#filter0_d_1134_2875)">
<mask id="path-1-outside-1_1134_2875" maskUnits="userSpaceOnUse" x="4" y="0" width="118" height="22" fill="black">
<rect fill="white" x="4" width="118" height="22"/>
<path d="M5.51705 20V2.54545H17.2784V5.58807H9.20739V9.74716H16.6733V12.7898H9.20739V16.9574H17.3125V20H5.51705ZM23.8983 6.90909L26.3017 11.4858L28.7647 6.90909H32.4892L28.6966 13.4545L32.5914 20H28.8841L26.3017 15.4744L23.7619 20H20.0119L23.8983 13.4545L20.1483 6.90909H23.8983ZM40.8114 20.2557C39.4705 20.2557 38.3171 19.9716 37.3512 19.4034C36.391 18.8295 35.6524 18.0341 35.1353 17.017C34.6239 16 34.3683 14.8295 34.3683 13.5057C34.3683 12.1648 34.6268 10.9886 35.1438 9.97727C35.6666 8.96023 36.408 8.16761 37.3683 7.59943C38.3285 7.02557 39.4705 6.73864 40.7944 6.73864C41.9364 6.73864 42.9364 6.94602 43.7944 7.36079C44.6524 7.77557 45.3313 8.35795 45.8313 9.10795C46.3313 9.85795 46.6069 10.7386 46.658 11.75H43.2319C43.1353 11.0966 42.8796 10.571 42.4649 10.1733C42.0558 9.76989 41.5188 9.56818 40.8541 9.56818C40.2916 9.56818 39.8001 9.72159 39.3796 10.0284C38.9649 10.3295 38.641 10.7699 38.408 11.3494C38.1751 11.929 38.0586 12.6307 38.0586 13.4545C38.0586 14.2898 38.1722 15 38.3995 15.5852C38.6325 16.1705 38.9592 16.6165 39.3796 16.9233C39.8001 17.2301 40.2916 17.3835 40.8541 17.3835C41.2688 17.3835 41.641 17.2983 41.9705 17.1278C42.3058 16.9574 42.5813 16.7102 42.7972 16.3864C43.0188 16.0568 43.1637 15.6619 43.2319 15.2017H46.658C46.6012 16.2017 46.3285 17.0824 45.8399 17.8438C45.3569 18.5994 44.6893 19.1903 43.837 19.6165C42.9847 20.0426 41.9762 20.2557 40.8114 20.2557ZM53.3333 2.54545V20H49.7026V2.54545H53.3333ZM65.3566 14.4261V6.90909H68.9872V20H65.5015V17.6222H65.3651C65.0696 18.3892 64.5782 19.0057 63.8907 19.4716C63.2088 19.9375 62.3764 20.1705 61.3935 20.1705C60.5185 20.1705 59.7486 19.9716 59.0838 19.5739C58.4191 19.1761 57.8992 18.6108 57.5242 17.8778C57.1549 17.1449 56.9674 16.267 56.9617 15.2443V6.90909H60.5924V14.5966C60.598 15.3693 60.8054 15.9801 61.2145 16.429C61.6236 16.8778 62.1719 17.1023 62.8594 17.1023C63.2969 17.1023 63.706 17.0028 64.0867 16.804C64.4674 16.5994 64.7742 16.2983 65.0071 15.9006C65.2458 15.5028 65.3622 15.0114 65.3566 14.4261ZM83.5034 10.642L80.1795 10.8466C80.1227 10.5625 80.0006 10.3068 79.8131 10.0795C79.6256 9.84659 79.3784 9.66193 79.0716 9.52557C78.7705 9.38352 78.4097 9.3125 77.9892 9.3125C77.4267 9.3125 76.9523 9.43182 76.5659 9.67045C76.1795 9.90341 75.9864 10.2159 75.9864 10.608C75.9864 10.9205 76.1114 11.1847 76.3614 11.4006C76.6114 11.6165 77.0403 11.7898 77.6483 11.9205L80.0176 12.3977C81.2903 12.6591 82.2392 13.0795 82.8642 13.6591C83.4892 14.2386 83.8017 15 83.8017 15.9432C83.8017 16.8011 83.5489 17.554 83.0432 18.2017C82.5432 18.8494 81.8557 19.3551 80.9807 19.7188C80.1114 20.0767 79.1085 20.2557 77.9722 20.2557C76.2392 20.2557 74.8585 19.8949 73.8301 19.1733C72.8074 18.446 72.208 17.4574 72.0318 16.2074L75.6028 16.0199C75.7108 16.5483 75.9722 16.9517 76.3869 17.2301C76.8017 17.5028 77.333 17.6392 77.9807 17.6392C78.617 17.6392 79.1284 17.517 79.5148 17.2727C79.9068 17.0227 80.1057 16.7017 80.1114 16.3097C80.1057 15.9801 79.9665 15.7102 79.6937 15.5C79.421 15.2841 79.0006 15.1193 78.4324 15.0057L76.1653 14.554C74.8869 14.2983 73.9352 13.8551 73.3102 13.2244C72.6909 12.5937 72.3812 11.7898 72.3812 10.8125C72.3812 9.97159 72.6085 9.24716 73.0631 8.6392C73.5233 8.03125 74.1682 7.5625 74.9977 7.23295C75.833 6.90341 76.8102 6.73864 77.9295 6.73864C79.583 6.73864 80.8841 7.08807 81.833 7.78693C82.7875 8.4858 83.3443 9.4375 83.5034 10.642ZM86.8079 20V6.90909H90.4386V20H86.8079ZM88.6318 5.22159C88.092 5.22159 87.6289 5.04261 87.2426 4.68466C86.8619 4.32102 86.6716 3.88636 86.6716 3.38068C86.6716 2.88068 86.8619 2.4517 87.2426 2.09375C87.6289 1.73011 88.092 1.54829 88.6318 1.54829C89.1716 1.54829 89.6318 1.73011 90.0125 2.09375C90.3988 2.4517 90.592 2.88068 90.592 3.38068C90.592 3.88636 90.3988 4.32102 90.0125 4.68466C89.6318 5.04261 89.1716 5.22159 88.6318 5.22159ZM106.272 6.90909L101.695 20H97.6039L93.0272 6.90909H96.8624L99.5812 16.2756H99.7176L102.428 6.90909H106.272ZM114.394 20.2557C113.047 20.2557 111.888 19.983 110.916 19.4375C109.95 18.8864 109.206 18.108 108.683 17.1023C108.161 16.0909 107.899 14.8949 107.899 13.5142C107.899 12.1676 108.161 10.9858 108.683 9.96875C109.206 8.9517 109.942 8.15909 110.891 7.59091C111.845 7.02273 112.965 6.73864 114.249 6.73864C115.112 6.73864 115.916 6.87784 116.661 7.15625C117.411 7.42898 118.064 7.84091 118.621 8.39205C119.183 8.94318 119.621 9.63636 119.933 10.4716C120.246 11.3011 120.402 12.2727 120.402 13.3864V14.3835H109.348V12.1335H116.984C116.984 11.6108 116.871 11.1477 116.644 10.7443C116.416 10.3409 116.101 10.0256 115.698 9.7983C115.3 9.56534 114.837 9.44886 114.308 9.44886C113.757 9.44886 113.269 9.5767 112.842 9.83239C112.422 10.0824 112.092 10.4205 111.854 10.8466C111.615 11.267 111.493 11.7358 111.487 12.2528V14.392C111.487 15.0398 111.607 15.5994 111.845 16.071C112.09 16.5426 112.433 16.9062 112.876 17.1619C113.32 17.4176 113.845 17.5455 114.453 17.5455C114.857 17.5455 115.226 17.4886 115.561 17.375C115.896 17.2614 116.183 17.0909 116.422 16.8636C116.661 16.6364 116.842 16.358 116.967 16.0284L120.325 16.25C120.155 17.0568 119.805 17.7614 119.277 18.3636C118.754 18.9602 118.078 19.4261 117.249 19.7614C116.425 20.0909 115.473 20.2557 114.394 20.2557Z"/>
</mask>
<path d="M5.51705 20V2.54545H17.2784V5.58807H9.20739V9.74716H16.6733V12.7898H9.20739V16.9574H17.3125V20H5.51705ZM23.8983 6.90909L26.3017 11.4858L28.7647 6.90909H32.4892L28.6966 13.4545L32.5914 20H28.8841L26.3017 15.4744L23.7619 20H20.0119L23.8983 13.4545L20.1483 6.90909H23.8983ZM40.8114 20.2557C39.4705 20.2557 38.3171 19.9716 37.3512 19.4034C36.391 18.8295 35.6524 18.0341 35.1353 17.017C34.6239 16 34.3683 14.8295 34.3683 13.5057C34.3683 12.1648 34.6268 10.9886 35.1438 9.97727C35.6666 8.96023 36.408 8.16761 37.3683 7.59943C38.3285 7.02557 39.4705 6.73864 40.7944 6.73864C41.9364 6.73864 42.9364 6.94602 43.7944 7.36079C44.6524 7.77557 45.3313 8.35795 45.8313 9.10795C46.3313 9.85795 46.6069 10.7386 46.658 11.75H43.2319C43.1353 11.0966 42.8796 10.571 42.4649 10.1733C42.0558 9.76989 41.5188 9.56818 40.8541 9.56818C40.2916 9.56818 39.8001 9.72159 39.3796 10.0284C38.9649 10.3295 38.641 10.7699 38.408 11.3494C38.1751 11.929 38.0586 12.6307 38.0586 13.4545C38.0586 14.2898 38.1722 15 38.3995 15.5852C38.6325 16.1705 38.9592 16.6165 39.3796 16.9233C39.8001 17.2301 40.2916 17.3835 40.8541 17.3835C41.2688 17.3835 41.641 17.2983 41.9705 17.1278C42.3058 16.9574 42.5813 16.7102 42.7972 16.3864C43.0188 16.0568 43.1637 15.6619 43.2319 15.2017H46.658C46.6012 16.2017 46.3285 17.0824 45.8399 17.8438C45.3569 18.5994 44.6893 19.1903 43.837 19.6165C42.9847 20.0426 41.9762 20.2557 40.8114 20.2557ZM53.3333 2.54545V20H49.7026V2.54545H53.3333ZM65.3566 14.4261V6.90909H68.9872V20H65.5015V17.6222H65.3651C65.0696 18.3892 64.5782 19.0057 63.8907 19.4716C63.2088 19.9375 62.3764 20.1705 61.3935 20.1705C60.5185 20.1705 59.7486 19.9716 59.0838 19.5739C58.4191 19.1761 57.8992 18.6108 57.5242 17.8778C57.1549 17.1449 56.9674 16.267 56.9617 15.2443V6.90909H60.5924V14.5966C60.598 15.3693 60.8054 15.9801 61.2145 16.429C61.6236 16.8778 62.1719 17.1023 62.8594 17.1023C63.2969 17.1023 63.706 17.0028 64.0867 16.804C64.4674 16.5994 64.7742 16.2983 65.0071 15.9006C65.2458 15.5028 65.3622 15.0114 65.3566 14.4261ZM83.5034 10.642L80.1795 10.8466C80.1227 10.5625 80.0006 10.3068 79.8131 10.0795C79.6256 9.84659 79.3784 9.66193 79.0716 9.52557C78.7705 9.38352 78.4097 9.3125 77.9892 9.3125C77.4267 9.3125 76.9523 9.43182 76.5659 9.67045C76.1795 9.90341 75.9864 10.2159 75.9864 10.608C75.9864 10.9205 76.1114 11.1847 76.3614 11.4006C76.6114 11.6165 77.0403 11.7898 77.6483 11.9205L80.0176 12.3977C81.2903 12.6591 82.2392 13.0795 82.8642 13.6591C83.4892 14.2386 83.8017 15 83.8017 15.9432C83.8017 16.8011 83.5489 17.554 83.0432 18.2017C82.5432 18.8494 81.8557 19.3551 80.9807 19.7188C80.1114 20.0767 79.1085 20.2557 77.9722 20.2557C76.2392 20.2557 74.8585 19.8949 73.8301 19.1733C72.8074 18.446 72.208 17.4574 72.0318 16.2074L75.6028 16.0199C75.7108 16.5483 75.9722 16.9517 76.3869 17.2301C76.8017 17.5028 77.333 17.6392 77.9807 17.6392C78.617 17.6392 79.1284 17.517 79.5148 17.2727C79.9068 17.0227 80.1057 16.7017 80.1114 16.3097C80.1057 15.9801 79.9665 15.7102 79.6937 15.5C79.421 15.2841 79.0006 15.1193 78.4324 15.0057L76.1653 14.554C74.8869 14.2983 73.9352 13.8551 73.3102 13.2244C72.6909 12.5937 72.3812 11.7898 72.3812 10.8125C72.3812 9.97159 72.6085 9.24716 73.0631 8.6392C73.5233 8.03125 74.1682 7.5625 74.9977 7.23295C75.833 6.90341 76.8102 6.73864 77.9295 6.73864C79.583 6.73864 80.8841 7.08807 81.833 7.78693C82.7875 8.4858 83.3443 9.4375 83.5034 10.642ZM86.8079 20V6.90909H90.4386V20H86.8079ZM88.6318 5.22159C88.092 5.22159 87.6289 5.04261 87.2426 4.68466C86.8619 4.32102 86.6716 3.88636 86.6716 3.38068C86.6716 2.88068 86.8619 2.4517 87.2426 2.09375C87.6289 1.73011 88.092 1.54829 88.6318 1.54829C89.1716 1.54829 89.6318 1.73011 90.0125 2.09375C90.3988 2.4517 90.592 2.88068 90.592 3.38068C90.592 3.88636 90.3988 4.32102 90.0125 4.68466C89.6318 5.04261 89.1716 5.22159 88.6318 5.22159ZM106.272 6.90909L101.695 20H97.6039L93.0272 6.90909H96.8624L99.5812 16.2756H99.7176L102.428 6.90909H106.272ZM114.394 20.2557C113.047 20.2557 111.888 19.983 110.916 19.4375C109.95 18.8864 109.206 18.108 108.683 17.1023C108.161 16.0909 107.899 14.8949 107.899 13.5142C107.899 12.1676 108.161 10.9858 108.683 9.96875C109.206 8.9517 109.942 8.15909 110.891 7.59091C111.845 7.02273 112.965 6.73864 114.249 6.73864C115.112 6.73864 115.916 6.87784 116.661 7.15625C117.411 7.42898 118.064 7.84091 118.621 8.39205C119.183 8.94318 119.621 9.63636 119.933 10.4716C120.246 11.3011 120.402 12.2727 120.402 13.3864V14.3835H109.348V12.1335H116.984C116.984 11.6108 116.871 11.1477 116.644 10.7443C116.416 10.3409 116.101 10.0256 115.698 9.7983C115.3 9.56534 114.837 9.44886 114.308 9.44886C113.757 9.44886 113.269 9.5767 112.842 9.83239C112.422 10.0824 112.092 10.4205 111.854 10.8466C111.615 11.267 111.493 11.7358 111.487 12.2528V14.392C111.487 15.0398 111.607 15.5994 111.845 16.071C112.09 16.5426 112.433 16.9062 112.876 17.1619C113.32 17.4176 113.845 17.5455 114.453 17.5455C114.857 17.5455 115.226 17.4886 115.561 17.375C115.896 17.2614 116.183 17.0909 116.422 16.8636C116.661 16.6364 116.842 16.358 116.967 16.0284L120.325 16.25C120.155 17.0568 119.805 17.7614 119.277 18.3636C118.754 18.9602 118.078 19.4261 117.249 19.7614C116.425 20.0909 115.473 20.2557 114.394 20.2557Z" fill="black"/>
<path d="M5.51705 20H4.51705V21H5.51705V20ZM5.51705 2.54545V1.54545H4.51705V2.54545H5.51705ZM17.2784 2.54545H18.2784V1.54545H17.2784V2.54545ZM17.2784 5.58807V6.58807H18.2784V5.58807H17.2784ZM9.20739 5.58807V4.58807H8.20739V5.58807H9.20739ZM9.20739 9.74716H8.20739V10.7472H9.20739V9.74716ZM16.6733 9.74716H17.6733V8.74716H16.6733V9.74716ZM16.6733 12.7898V13.7898H17.6733V12.7898H16.6733ZM9.20739 12.7898V11.7898H8.20739V12.7898H9.20739ZM9.20739 16.9574H8.20739V17.9574H9.20739V16.9574ZM17.3125 16.9574H18.3125V15.9574H17.3125V16.9574ZM17.3125 20V21H18.3125V20H17.3125ZM6.51705 20V2.54545H4.51705V20H6.51705ZM5.51705 3.54545H17.2784V1.54545H5.51705V3.54545ZM16.2784 2.54545V5.58807H18.2784V2.54545H16.2784ZM17.2784 4.58807H9.20739V6.58807H17.2784V4.58807ZM8.20739 5.58807V9.74716H10.2074V5.58807H8.20739ZM9.20739 10.7472H16.6733V8.74716H9.20739V10.7472ZM15.6733 9.74716V12.7898H17.6733V9.74716H15.6733ZM16.6733 11.7898H9.20739V13.7898H16.6733V11.7898ZM8.20739 12.7898V16.9574H10.2074V12.7898H8.20739ZM9.20739 17.9574H17.3125V15.9574H9.20739V17.9574ZM16.3125 16.9574V20H18.3125V16.9574H16.3125ZM17.3125 19H5.51705V21H17.3125V19ZM23.8983 6.90909L24.7836 6.44416L24.5026 5.90909H23.8983V6.90909ZM26.3017 11.4858L25.4163 11.9507L26.2909 13.616L27.1823 11.9597L26.3017 11.4858ZM28.7647 6.90909V5.90909H28.1673L27.8842 6.43519L28.7647 6.90909ZM32.4892 6.90909L33.3544 7.41044L34.2243 5.90909H32.4892V6.90909ZM28.6966 13.4545L27.8313 12.9532L27.5369 13.4613L27.8372 13.9659L28.6966 13.4545ZM32.5914 20V21H34.3502L33.4508 19.4886L32.5914 20ZM28.8841 20L28.0155 20.4956L28.3033 21H28.8841V20ZM26.3017 15.4744L27.1702 14.9788L26.2944 13.444L25.4296 14.985L26.3017 15.4744ZM23.7619 20V21H24.3474L24.634 20.4894L23.7619 20ZM20.0119 20L19.152 19.4895L18.2552 21H20.0119V20ZM23.8983 13.4545L24.7581 13.9651L25.0559 13.4635L24.766 12.9574L23.8983 13.4545ZM20.1483 6.90909V5.90909H18.4229L19.2806 7.4062L20.1483 6.90909ZM23.0129 7.37402L25.4163 11.9507L27.187 11.0209L24.7836 6.44416L23.0129 7.37402ZM27.1823 11.9597L29.6453 7.38299L27.8842 6.43519L25.4211 11.0119L27.1823 11.9597ZM28.7647 7.90909H32.4892V5.90909H28.7647V7.90909ZM31.6239 6.40774L27.8313 12.9532L29.5618 13.9559L33.3544 7.41044L31.6239 6.40774ZM27.8372 13.9659L31.7321 20.5114L33.4508 19.4886L29.5559 12.9432L27.8372 13.9659ZM32.5914 19H28.8841V21H32.5914V19ZM29.7526 19.5044L27.1702 14.9788L25.4331 15.97L28.0155 20.4956L29.7526 19.5044ZM25.4296 14.985L22.8898 19.5106L24.634 20.4894L27.1737 15.9638L25.4296 14.985ZM23.7619 19H20.0119V21H23.7619V19ZM20.8718 20.5105L24.7581 13.9651L23.0384 12.944L19.152 19.4895L20.8718 20.5105ZM24.766 12.9574L21.016 6.41198L19.2806 7.4062L23.0306 13.9517L24.766 12.9574ZM20.1483 7.90909H23.8983V5.90909H20.1483V7.90909ZM37.3512 19.4034L36.8382 20.2618L36.8442 20.2653L37.3512 19.4034ZM35.1353 17.017L34.2419 17.4663L34.2439 17.4702L35.1353 17.017ZM35.1438 9.97727L34.2544 9.52015L34.2534 9.52207L35.1438 9.97727ZM37.3683 7.59943L37.8775 8.46006L37.8813 8.45782L37.3683 7.59943ZM43.7944 7.36079L44.2297 6.46048L44.2297 6.46048L43.7944 7.36079ZM46.658 11.75V12.75H47.7099L47.6568 11.6995L46.658 11.75ZM43.2319 11.75L42.2427 11.8962L42.3689 12.75H43.2319V11.75ZM42.4649 10.1733L41.7626 10.8854L41.7727 10.8951L42.4649 10.1733ZM39.3796 10.0284L39.9671 10.8376L39.9691 10.8362L39.3796 10.0284ZM38.3995 15.5852L37.4673 15.9472L37.4704 15.9551L38.3995 15.5852ZM39.3796 16.9233L39.9691 16.1155L39.9691 16.1155L39.3796 16.9233ZM41.9705 17.1278L41.5173 16.2364L41.5111 16.2396L41.9705 17.1278ZM42.7972 16.3864L41.9674 15.8284L41.9652 15.8317L42.7972 16.3864ZM43.2319 15.2017V14.2017H42.3691L42.2427 15.0552L43.2319 15.2017ZM46.658 15.2017L47.6564 15.2584L47.7165 14.2017H46.658V15.2017ZM45.8399 17.8438L44.9983 17.3036L44.9972 17.3052L45.8399 17.8438ZM43.837 19.6165L43.3898 18.7221L43.3898 18.7221L43.837 19.6165ZM40.8114 19.2557C39.6137 19.2557 38.6428 19.003 37.8582 18.5415L36.8442 20.2653C37.9915 20.9402 39.3274 21.2557 40.8114 21.2557V19.2557ZM37.8642 18.545C37.0692 18.0699 36.4602 17.4164 36.0267 16.5639L34.2439 17.4702C34.8446 18.6518 35.7128 19.5892 36.8382 20.2618L37.8642 18.545ZM36.0287 16.5678C35.598 15.7112 35.3683 14.699 35.3683 13.5057H33.3683C33.3683 14.9601 33.6499 16.2888 34.2419 17.4663L36.0287 16.5678ZM35.3683 13.5057C35.3683 12.2946 35.6012 11.2796 36.0342 10.4325L34.2534 9.52207C33.6524 10.6977 33.3683 12.035 33.3683 13.5057H35.3683ZM36.0332 10.4344C36.4721 9.58058 37.0837 8.92976 37.8775 8.46005L36.859 6.73881C35.7324 7.40547 34.8611 8.33987 34.2544 9.52015L36.0332 10.4344ZM37.8813 8.45782C38.6601 7.99239 39.6178 7.73864 40.7944 7.73864V5.73864C39.3233 5.73864 37.9969 6.05874 36.8553 6.74104L37.8813 8.45782ZM40.7944 7.73864C41.8153 7.73864 42.6612 7.92369 43.3592 8.2611L44.2297 6.46048C43.2117 5.96835 42.0576 5.73864 40.7944 5.73864V7.73864ZM43.3592 8.2611C44.0659 8.60279 44.6041 9.06981 44.9993 9.66265L46.6634 8.55325C46.0586 7.64609 45.2388 6.94835 44.2297 6.46048L43.3592 8.2611ZM44.9993 9.66265C45.3874 10.2448 45.6161 10.9464 45.6593 11.8005L47.6568 11.6995C47.5977 10.5309 47.2753 9.47111 46.6634 8.55325L44.9993 9.66265ZM46.658 10.75H43.2319V12.75H46.658V10.75ZM44.2212 11.6038C44.0972 10.7652 43.7553 10.0252 43.157 9.45151L41.7727 10.8951C42.004 11.1168 42.1734 11.428 42.2427 11.8962L44.2212 11.6038ZM43.167 9.46126C42.5413 8.84423 41.7371 8.56818 40.8541 8.56818V10.5682C41.3006 10.5682 41.5703 10.6955 41.7627 10.8853L43.167 9.46126ZM40.8541 8.56818C40.0977 8.56818 39.3958 8.77865 38.7902 9.22062L39.9691 10.8362C40.2043 10.6645 40.4854 10.5682 40.8541 10.5682V8.56818ZM38.7921 9.21919C38.1949 9.65282 37.7679 10.2607 37.4802 10.9765L39.3359 11.7224C39.5141 11.2791 39.7349 11.0063 39.9671 10.8376L38.7921 9.21919ZM37.4802 10.9765C37.187 11.7058 37.0586 12.5415 37.0586 13.4545H39.0586C39.0586 12.7199 39.1631 12.1522 39.3359 11.7224L37.4802 10.9765ZM37.0586 13.4545C37.0586 14.375 37.1831 15.2154 37.4673 15.9472L39.3317 15.2232C39.1614 14.7846 39.0586 14.2045 39.0586 13.4545H37.0586ZM37.4704 15.9551C37.7583 16.6783 38.1882 17.2918 38.7902 17.7311L39.9691 16.1155C39.7301 15.9411 39.5066 15.6626 39.3286 15.2154L37.4704 15.9551ZM38.7902 17.7311C39.3958 18.1731 40.0977 18.3835 40.8541 18.3835V16.3835C40.4854 16.3835 40.2043 16.2872 39.9691 16.1155L38.7902 17.7311ZM40.8541 18.3835C41.4096 18.3835 41.9424 18.2683 42.43 18.0161L41.5111 16.2396C41.3396 16.3283 41.1281 16.3835 40.8541 16.3835V18.3835ZM42.4238 18.0192C42.9176 17.7681 43.3216 17.4026 43.6293 16.9411L41.9652 15.8317C41.8411 16.0178 41.694 16.1466 41.5173 16.2365L42.4238 18.0192ZM43.6271 16.9444C43.9449 16.4718 44.1348 15.9307 44.2211 15.3483L42.2427 15.0552C42.1926 15.3932 42.0928 15.6419 41.9674 15.8284L43.6271 16.9444ZM43.2319 16.2017H46.658V14.2017H43.2319V16.2017ZM45.6597 15.145C45.6115 15.9919 45.3842 16.7023 44.9983 17.3036L46.6814 18.3839C47.2728 17.4625 47.5909 16.4115 47.6564 15.2584L45.6597 15.145ZM44.9972 17.3052C44.6177 17.8992 44.0911 18.3714 43.3898 18.7221L44.2842 20.5109C45.2875 20.0093 46.0961 19.2997 46.6825 18.3823L44.9972 17.3052ZM43.3898 18.7221C42.7039 19.065 41.8549 19.2557 40.8114 19.2557V21.2557C42.0975 21.2557 43.2656 21.0202 44.2842 20.5109L43.3898 18.7221ZM53.3333 2.54545H54.3333V1.54545H53.3333V2.54545ZM53.3333 20V21H54.3333V20H53.3333ZM49.7026 20H48.7026V21H49.7026V20ZM49.7026 2.54545V1.54545H48.7026V2.54545H49.7026ZM52.3333 2.54545V20H54.3333V2.54545H52.3333ZM53.3333 19H49.7026V21H53.3333V19ZM50.7026 20V2.54545H48.7026V20H50.7026ZM49.7026 3.54545H53.3333V1.54545H49.7026V3.54545ZM65.3566 14.4261L64.3565 14.4261L64.3566 14.4358L65.3566 14.4261ZM65.3566 6.90909V5.90909H64.3566V6.90909H65.3566ZM68.9872 6.90909H69.9872V5.90909H68.9872V6.90909ZM68.9872 20V21H69.9872V20H68.9872ZM65.5015 20H64.5015V21H65.5015V20ZM65.5015 17.6222H66.5015V16.6222H65.5015V17.6222ZM65.3651 17.6222V16.6222H64.6787L64.4319 17.2627L65.3651 17.6222ZM63.8907 19.4716L63.3297 18.6438L63.3265 18.6459L63.8907 19.4716ZM59.0838 19.5739L59.5973 18.7157L59.5973 18.7157L59.0838 19.5739ZM57.5242 17.8778L56.6311 18.3278L56.6339 18.3333L57.5242 17.8778ZM56.9617 15.2443L55.9617 15.2443L55.9617 15.2499L56.9617 15.2443ZM56.9617 6.90909V5.90909H55.9617V6.90909H56.9617ZM60.5924 6.90909H61.5924V5.90909H60.5924V6.90909ZM60.5924 14.5966L59.5923 14.5966L59.5924 14.6039L60.5924 14.5966ZM61.2145 16.429L61.9536 15.7554L61.9536 15.7554L61.2145 16.429ZM64.0867 16.804L64.5497 17.6904L64.56 17.6849L64.0867 16.804ZM65.0071 15.9006L64.1496 15.386L64.1442 15.3952L65.0071 15.9006ZM66.3566 14.4261V6.90909H64.3566V14.4261H66.3566ZM65.3566 7.90909H68.9872V5.90909H65.3566V7.90909ZM67.9872 6.90909V20H69.9872V6.90909H67.9872ZM68.9872 19H65.5015V21H68.9872V19ZM66.5015 20V17.6222H64.5015V20H66.5015ZM65.5015 16.6222H65.3651V18.6222H65.5015V16.6222ZM64.4319 17.2627C64.2106 17.8372 63.8501 18.2911 63.3297 18.6438L64.4517 20.2994C65.3062 19.7203 65.9286 18.9412 66.2983 17.9816L64.4319 17.2627ZM63.3265 18.6459C62.8405 18.9781 62.2142 19.1705 61.3935 19.1705V21.1705C62.5387 21.1705 63.5772 20.8969 64.4548 20.2972L63.3265 18.6459ZM61.3935 19.1705C60.6754 19.1705 60.0875 19.009 59.5973 18.7157L58.5704 20.432C59.4097 20.9341 60.3616 21.1705 61.3935 21.1705V19.1705ZM59.5973 18.7157C59.1036 18.4204 58.7096 17.9994 58.4144 17.4224L56.6339 18.3333C57.0887 19.2222 57.7345 19.9319 58.5704 20.432L59.5973 18.7157ZM58.4172 17.4279C58.1324 16.8625 57.9667 16.1442 57.9617 15.2388L55.9617 15.2499C55.968 16.3899 56.1774 17.4272 56.6311 18.3278L58.4172 17.4279ZM57.9617 15.2443V6.90909H55.9617V15.2443H57.9617ZM56.9617 7.90909H60.5924V5.90909H56.9617V7.90909ZM59.5924 6.90909V14.5966H61.5924V6.90909H59.5924ZM59.5924 14.6039C59.5994 15.5539 59.8587 16.4259 60.4754 17.1026L61.9536 15.7554C61.7522 15.5343 61.5967 15.1847 61.5923 14.5892L59.5924 14.6039ZM60.4754 17.1026C61.1 17.7879 61.9317 18.1023 62.8594 18.1023V16.1023C62.4121 16.1023 62.1472 15.9678 61.9536 15.7554L60.4754 17.1026ZM62.8594 18.1023C63.455 18.1023 64.0233 17.9653 64.5497 17.6903L63.6237 15.9176C63.3886 16.0404 63.1388 16.1023 62.8594 16.1023V18.1023ZM64.56 17.6849C65.1134 17.3875 65.5506 16.9513 65.87 16.406L64.1442 15.3952C63.9977 15.6453 63.8213 15.8114 63.6134 15.9231L64.56 17.6849ZM65.8646 16.4151C66.2201 15.8226 66.3635 15.1383 66.3565 14.4164L64.3566 14.4358C64.361 14.8844 64.2714 15.1831 64.1496 15.3861L65.8646 16.4151ZM83.5034 10.642L83.5648 11.6402L84.6352 11.5743L84.4948 10.5111L83.5034 10.642ZM80.1795 10.8466L79.199 11.0427L79.3701 11.8983L80.241 11.8447L80.1795 10.8466ZM79.8131 10.0795L79.034 10.7066L79.0417 10.7159L79.8131 10.0795ZM79.0716 9.52557L78.645 10.43L78.6552 10.4348L78.6655 10.4394L79.0716 9.52557ZM76.5659 9.67045L77.0823 10.5269L77.0914 10.5213L76.5659 9.67045ZM76.3614 11.4006L75.7077 12.1574L75.7077 12.1574L76.3614 11.4006ZM77.6483 11.9205L77.4381 12.8982L77.4508 12.9008L77.6483 11.9205ZM80.0176 12.3977L80.2188 11.4182L80.2151 11.4174L80.0176 12.3977ZM82.8642 13.6591L82.1843 14.3924L82.1843 14.3924L82.8642 13.6591ZM83.0432 18.2017L82.2549 17.5863L82.2516 17.5907L83.0432 18.2017ZM80.9807 19.7188L81.3614 20.6434L81.3644 20.6422L80.9807 19.7188ZM73.8301 19.1733L73.2506 19.9883L73.2557 19.9919L73.8301 19.1733ZM72.0318 16.2074L71.9794 15.2088L70.8893 15.266L71.0416 16.3469L72.0318 16.2074ZM75.6028 16.0199L76.5826 15.8197L76.4103 14.9761L75.5504 15.0213L75.6028 16.0199ZM76.3869 17.2301L75.8296 18.0604L75.8375 18.0657L76.3869 17.2301ZM79.5148 17.2727L80.0492 18.1179L80.0524 18.1159L79.5148 17.2727ZM80.1114 16.3097L81.1113 16.3242L81.1115 16.3083L81.1112 16.2924L80.1114 16.3097ZM79.6937 15.5L79.073 16.2841L79.0832 16.292L79.6937 15.5ZM78.4324 15.0057L78.6285 14.0251L78.6278 14.025L78.4324 15.0057ZM76.1653 14.554L75.9692 15.5346L75.9699 15.5347L76.1653 14.554ZM73.3102 13.2244L72.5967 13.9251L72.5999 13.9283L73.3102 13.2244ZM73.0631 8.6392L72.2657 8.03562L72.2622 8.0404L73.0631 8.6392ZM74.9977 7.23295L74.6307 6.30274L74.6285 6.3036L74.9977 7.23295ZM81.833 7.78693L81.2399 8.59211L81.2422 8.59379L81.833 7.78693ZM83.442 9.64393L80.1181 9.84848L80.241 11.8447L83.5648 11.6402L83.442 9.64393ZM81.1601 10.6505C81.0704 10.2018 80.8751 9.79544 80.5844 9.44316L79.0417 10.7159C79.1261 10.8182 79.1751 10.9232 79.199 11.0427L81.1601 10.6505ZM80.5921 9.45254C80.2932 9.08117 79.9118 8.80469 79.4777 8.61176L78.6655 10.4394C78.845 10.5192 78.958 10.612 79.0341 10.7066L80.5921 9.45254ZM79.4982 8.62114C79.0334 8.40188 78.5196 8.3125 77.9892 8.3125V10.3125C78.2997 10.3125 78.5075 10.3652 78.645 10.43L79.4982 8.62114ZM77.9892 8.3125C77.2853 8.3125 76.6185 8.46262 76.0404 8.81966L77.0914 10.5213C77.2861 10.401 77.5681 10.3125 77.9892 10.3125V8.3125ZM76.0496 8.81407C75.4167 9.19563 74.9864 9.80696 74.9864 10.608H76.9864C76.9864 10.5928 76.9881 10.5891 76.987 10.5933C76.9857 10.5979 76.9835 10.6027 76.9818 10.6054C76.9779 10.6117 76.9946 10.5797 77.0823 10.5268L76.0496 8.81407ZM74.9864 10.608C74.9864 11.2294 75.2521 11.7639 75.7077 12.1574L77.015 10.6437C76.9977 10.6288 76.9889 10.6186 76.9854 10.614C76.982 10.6097 76.9824 10.6094 76.984 10.6128C76.9857 10.6163 76.9867 10.6197 76.9871 10.6214C76.9874 10.6229 76.9864 10.619 76.9864 10.608H74.9864ZM75.7077 12.1574C76.1536 12.5424 76.7872 12.7582 77.4381 12.8981L77.8584 10.9428C77.2935 10.8213 77.0692 10.6905 77.015 10.6437L75.7077 12.1574ZM77.4508 12.9008L79.8201 13.378L80.2151 11.4174L77.8458 10.9401L77.4508 12.9008ZM79.8165 13.3773C80.9968 13.6197 81.7461 13.986 82.1843 14.3924L83.5441 12.9258C82.7323 12.173 81.5838 11.6985 80.2188 11.4182L79.8165 13.3773ZM82.1843 14.3924C82.5822 14.7614 82.8017 15.2454 82.8017 15.9432H84.8017C84.8017 14.7546 84.3962 13.7159 83.5441 12.9258L82.1843 14.3924ZM82.8017 15.9432C82.8017 16.5887 82.617 17.1225 82.2549 17.5863L83.8314 18.8171C84.4807 17.9854 84.8017 17.0136 84.8017 15.9432H82.8017ZM82.2516 17.5907C81.8738 18.08 81.3368 18.4878 80.5969 18.7953L81.3644 20.6422C82.3746 20.2224 83.2125 19.6188 83.8348 18.8128L82.2516 17.5907ZM80.5999 18.7941C79.8738 19.0931 79.0045 19.2557 77.9722 19.2557V21.2557C79.2125 21.2557 80.349 21.0603 81.3614 20.6434L80.5999 18.7941ZM77.9722 19.2557C76.3688 19.2557 75.2116 18.9211 74.4045 18.3547L73.2557 19.9919C74.5054 20.8687 76.1096 21.2557 77.9722 21.2557V19.2557ZM74.4096 18.3583C73.6123 17.7913 73.1601 17.0477 73.022 16.0679L71.0416 16.3469C71.2558 17.8671 72.0025 19.1007 73.2506 19.9883L74.4096 18.3583ZM72.0843 17.206L75.6553 17.0185L75.5504 15.0213L71.9794 15.2088L72.0843 17.206ZM74.6231 16.2201C74.779 16.9833 75.1783 17.6232 75.8296 18.0604L76.9443 16.3998C76.766 16.2802 76.6426 16.1133 76.5826 15.8197L74.6231 16.2201ZM75.8375 18.0657C76.4584 18.4739 77.1964 18.6392 77.9807 18.6392V16.6392C77.4695 16.6392 77.145 16.5318 76.9363 16.3946L75.8375 18.0657ZM77.9807 18.6392C78.735 18.6392 79.4519 18.4957 80.0492 18.1179L78.9803 16.4275C78.8049 16.5384 78.4991 16.6392 77.9807 16.6392V18.6392ZM80.0524 18.1159C80.6672 17.7239 81.0997 17.119 81.1113 16.3242L79.1115 16.2952C79.1114 16.3028 79.1108 16.3078 79.1104 16.3106C79.11 16.3133 79.1097 16.3146 79.1096 16.3146C79.1096 16.3147 79.1097 16.3146 79.1097 16.3146C79.1097 16.3146 79.1092 16.3157 79.1078 16.3178C79.1036 16.3247 79.0752 16.367 78.9771 16.4296L80.0524 18.1159ZM81.1112 16.2924C81.1 15.6434 80.8053 15.0942 80.3043 14.708L79.0832 16.292C79.102 16.3065 79.1111 16.3163 79.1143 16.32C79.1173 16.3235 79.1162 16.3229 79.114 16.3185C79.1116 16.314 79.1104 16.31 79.1101 16.3086C79.1098 16.3075 79.1113 16.3129 79.1115 16.3269L81.1112 16.2924ZM80.3145 14.716C79.8613 14.3572 79.261 14.1516 78.6285 14.0251L78.2363 15.9863C78.7401 16.087 78.9808 16.211 79.073 16.284L80.3145 14.716ZM78.6278 14.025L76.3607 13.5733L75.9699 15.5347L78.237 15.9864L78.6278 14.025ZM76.3615 13.5734C75.1916 13.3394 74.4541 12.9581 74.0205 12.5205L72.5999 13.9283C73.4163 14.7522 74.5822 15.2572 75.9692 15.5346L76.3615 13.5734ZM74.0237 12.5238C73.6082 12.1006 73.3812 11.558 73.3812 10.8125H71.3812C71.3812 12.0216 71.7736 13.0869 72.5967 13.9251L74.0237 12.5238ZM73.3812 10.8125C73.3812 10.163 73.5526 9.65444 73.864 9.23801L72.2622 8.0404C71.6644 8.83988 71.3812 9.78023 71.3812 10.8125H73.3812ZM73.8604 9.24278C74.1927 8.80375 74.6778 8.43606 75.3669 8.16231L74.6285 6.3036C73.6585 6.68894 72.8539 7.25875 72.2658 8.03563L73.8604 9.24278ZM75.3647 8.16317C76.0582 7.88956 76.906 7.73864 77.9295 7.73864V5.73864C76.7145 5.73864 75.6077 5.91726 74.6307 6.30274L75.3647 8.16317ZM77.9295 7.73864C79.4532 7.73864 80.5198 8.06175 81.2399 8.59211L82.426 6.98175C81.2483 6.11438 79.7127 5.73864 77.9295 5.73864V7.73864ZM81.2422 8.59379C81.97 9.12661 82.3876 9.83073 82.512 10.773L84.4948 10.5111C84.3011 9.04427 83.605 7.84498 82.4237 6.98007L81.2422 8.59379ZM86.8079 20H85.8079V21H86.8079V20ZM86.8079 6.90909V5.90909H85.8079V6.90909H86.8079ZM90.4386 6.90909H91.4386V5.90909H90.4386V6.90909ZM90.4386 20V21H91.4386V20H90.4386ZM87.2426 4.68466L86.5519 5.40777L86.5574 5.41304L86.563 5.41822L87.2426 4.68466ZM87.2426 2.09375L87.9276 2.82227L87.928 2.82195L87.2426 2.09375ZM90.0125 2.09375L89.3217 2.81686L89.3273 2.82213L89.3328 2.82731L90.0125 2.09375ZM90.0125 4.68466L90.6975 5.41318L90.6978 5.41286L90.0125 4.68466ZM87.8079 20V6.90909H85.8079V20H87.8079ZM86.8079 7.90909H90.4386V5.90909H86.8079V7.90909ZM89.4386 6.90909V20H91.4386V6.90909H89.4386ZM90.4386 19H86.8079V21H90.4386V19ZM88.6318 4.22159C88.3371 4.22159 88.1187 4.13312 87.9222 3.9511L86.563 5.41822C87.1392 5.9521 87.8469 6.22159 88.6318 6.22159V4.22159ZM87.9333 3.96155C87.741 3.77788 87.6716 3.60085 87.6716 3.38068H85.6716C85.6716 4.17188 85.9828 4.86416 86.5519 5.40777L87.9333 3.96155ZM87.6716 3.38068C87.6716 3.17026 87.7377 3.00082 87.9276 2.82227L86.5576 1.36523C85.9861 1.90259 85.6716 2.5911 85.6716 3.38068H87.6716ZM87.928 2.82195C88.1253 2.63624 88.3418 2.54829 88.6318 2.54829V0.548295C87.8422 0.548295 87.1326 0.823991 86.5572 1.36555L87.928 2.82195ZM88.6318 2.54829C88.9215 2.54829 89.1323 2.63588 89.3217 2.81686L90.7032 1.37064C90.1313 0.824345 89.4216 0.548295 88.6318 0.548295V2.54829ZM89.3328 2.82731C89.5272 3.00739 89.592 3.17545 89.592 3.38068H91.592C91.592 2.58591 91.2704 1.89602 90.6921 1.36019L89.3328 2.82731ZM89.592 3.38068C89.592 3.59574 89.5238 3.77134 89.3271 3.95646L90.6978 5.41286C91.2739 4.8707 91.592 4.17699 91.592 3.38068H89.592ZM89.3274 3.95614C89.1389 4.13344 88.9263 4.22159 88.6318 4.22159V6.22159C89.4168 6.22159 90.1247 5.95179 90.6975 5.41318L89.3274 3.95614ZM106.272 6.90909L107.216 7.23911L107.68 5.90909H106.272V6.90909ZM101.695 20V21H102.405L102.639 20.33L101.695 20ZM97.6039 20L96.6599 20.33L96.8942 21H97.6039V20ZM93.0272 6.90909V5.90909H91.6183L92.0832 7.23911L93.0272 6.90909ZM96.8624 6.90909L97.8228 6.63033L97.6135 5.90909H96.8624V6.90909ZM99.5812 16.2756L98.6208 16.5543L98.8302 17.2756H99.5812V16.2756ZM99.7176 16.2756V17.2756H100.469L100.678 16.5535L99.7176 16.2756ZM102.428 6.90909V5.90909H101.676L101.467 6.63114L102.428 6.90909ZM105.328 6.57907L100.751 19.67L102.639 20.33L107.216 7.23911L105.328 6.57907ZM101.695 19H97.6039V21H101.695V19ZM98.5479 19.67L93.9712 6.57907L92.0832 7.23911L96.6599 20.33L98.5479 19.67ZM93.0272 7.90909H96.8624V5.90909H93.0272V7.90909ZM95.9021 7.18785L98.6208 16.5543L100.542 15.9968L97.8228 6.63033L95.9021 7.18785ZM99.5812 17.2756H99.7176V15.2756H99.5812V17.2756ZM100.678 16.5535L103.388 7.18704L101.467 6.63114L98.757 15.9976L100.678 16.5535ZM102.428 7.90909H106.272V5.90909H102.428V7.90909ZM110.916 19.4375L110.421 20.3061L110.427 20.3095L110.916 19.4375ZM108.683 17.1023L107.795 17.5614L107.796 17.5635L108.683 17.1023ZM108.683 9.96875L107.794 9.51163L107.794 9.51163L108.683 9.96875ZM110.891 7.59091L110.379 6.73161L110.377 6.73296L110.891 7.59091ZM116.661 7.15625L116.31 8.09291L116.319 8.09604L116.661 7.15625ZM118.621 8.39205L117.917 9.10278L117.921 9.10633L118.621 8.39205ZM119.933 10.4716L118.997 10.822L118.997 10.8241L119.933 10.4716ZM120.402 14.3835V15.3835H121.402V14.3835H120.402ZM109.348 14.3835H108.348V15.3835H109.348V14.3835ZM109.348 12.1335V11.1335H108.348V12.1335H109.348ZM116.984 12.1335V13.1335H117.984V12.1335H116.984ZM116.644 10.7443L115.772 11.2352L115.772 11.2352L116.644 10.7443ZM115.698 9.7983L115.192 10.6612L115.199 10.6654L115.207 10.6695L115.698 9.7983ZM112.842 9.83239L113.353 10.6919L113.357 10.6899L112.842 9.83239ZM111.854 10.8466L112.723 11.3402L112.726 11.3352L111.854 10.8466ZM111.487 12.2528L110.487 12.2419V12.2528H111.487ZM111.845 16.071L110.953 16.5226L110.957 16.531L111.845 16.071ZM115.561 17.375L115.24 16.4279L115.24 16.4279L115.561 17.375ZM116.422 16.8636L115.732 16.1395L115.732 16.1395L116.422 16.8636ZM116.967 16.0284L117.033 15.0306L116.295 14.9819L116.032 15.6738L116.967 16.0284ZM120.325 16.25L121.304 16.4567L121.542 15.3281L120.391 15.2522L120.325 16.25ZM119.277 18.3636L118.525 17.7041L118.525 17.7046L119.277 18.3636ZM117.249 19.7614L117.62 20.6898L117.623 20.6885L117.249 19.7614ZM114.394 19.2557C113.183 19.2557 112.2 19.0112 111.406 18.5655L110.427 20.3095C111.576 20.9547 112.911 21.2557 114.394 21.2557V19.2557ZM111.412 18.5689C110.616 18.115 110.006 17.4796 109.571 16.6411L107.796 17.5635C108.406 18.7363 109.284 19.6577 110.421 20.3061L111.412 18.5689ZM109.572 16.6431C109.136 15.8008 108.899 14.7687 108.899 13.5142H106.899C106.899 15.021 107.185 16.381 107.795 17.5614L109.572 16.6431ZM108.899 13.5142C108.899 12.2984 109.135 11.2784 109.573 10.4259L107.794 9.51163C107.187 10.6932 106.899 12.0368 106.899 13.5142H108.899ZM109.573 10.4259C110.013 9.56896 110.621 8.91775 111.404 8.44885L110.377 6.73296C109.262 7.40043 108.399 8.33445 107.794 9.51163L109.573 10.4259ZM111.402 8.4502C112.179 7.98768 113.116 7.73864 114.249 7.73864V5.73864C112.813 5.73864 111.511 6.05778 110.379 6.73161L111.402 8.4502ZM114.249 7.73864C115.003 7.73864 115.687 7.85987 116.31 8.09287L117.011 6.21963C116.145 5.89581 115.222 5.73864 114.249 5.73864V7.73864ZM116.319 8.09604C116.936 8.32037 117.465 8.65514 117.917 9.10277L119.324 7.68132C118.663 7.02668 117.885 6.53758 117.002 6.21646L116.319 8.09604ZM117.921 9.10633C118.366 9.54219 118.729 10.1057 118.997 10.822L120.87 10.1212C120.513 9.16699 120.001 8.34417 119.321 7.67776L117.921 9.10633ZM118.997 10.8241C119.258 11.5162 119.402 12.3635 119.402 13.3864H121.402C121.402 12.1819 121.233 11.086 120.869 10.1191L118.997 10.8241ZM119.402 13.3864V14.3835H121.402V13.3864H119.402ZM120.402 13.3835H109.348V15.3835H120.402V13.3835ZM110.348 14.3835V12.1335H108.348V14.3835H110.348ZM109.348 13.1335H116.984V11.1335H109.348V13.1335ZM117.984 12.1335C117.984 11.4614 117.837 10.8252 117.515 10.2535L115.772 11.2352C115.905 11.4702 115.984 11.7602 115.984 12.1335H117.984ZM117.515 10.2535C117.198 9.6909 116.751 9.24399 116.188 8.92705L115.207 10.6695C115.451 10.8071 115.635 10.9909 115.772 11.2352L117.515 10.2535ZM116.203 8.93541C115.631 8.60019 114.988 8.44886 114.308 8.44886V10.4489C114.685 10.4489 114.969 10.5305 115.192 10.6612L116.203 8.93541ZM114.308 8.44886C113.596 8.44886 112.926 8.61603 112.328 8.97489L113.357 10.6899C113.611 10.5374 113.918 10.4489 114.308 10.4489V8.44886ZM112.331 8.97285C111.76 9.31246 111.306 9.77836 110.981 10.358L112.726 11.3352C112.879 11.0625 113.084 10.8523 113.353 10.6919L112.331 8.97285ZM110.984 10.353C110.656 10.9309 110.495 11.5676 110.487 12.2419L112.487 12.2638C112.491 11.9039 112.574 11.6032 112.723 11.3402L110.984 10.353ZM110.487 12.2528V14.392H112.487V12.2528H110.487ZM110.487 14.392C110.487 15.1618 110.629 15.8829 110.953 16.5225L112.737 15.6195C112.584 15.316 112.487 14.9177 112.487 14.392H110.487ZM110.957 16.531C111.286 17.1655 111.762 17.6732 112.377 18.0281L113.376 16.2957C113.105 16.1393 112.893 15.9197 112.733 15.611L110.957 16.531ZM112.377 18.0281C112.998 18.3867 113.703 18.5455 114.453 18.5455V16.5455C113.988 16.5455 113.641 16.4486 113.376 16.2957L112.377 18.0281ZM114.453 18.5455C114.951 18.5455 115.43 18.4753 115.882 18.3221L115.24 16.4279C115.022 16.502 114.762 16.5455 114.453 16.5455V18.5455ZM115.882 18.3221C116.345 18.1653 116.76 17.9225 117.112 17.5878L115.732 16.1395C115.607 16.2593 115.448 16.3574 115.24 16.4279L115.882 18.3221ZM117.112 17.5878C117.466 17.2502 117.728 16.8427 117.902 16.3831L116.032 15.6738C115.957 15.8733 115.855 16.0226 115.732 16.1395L117.112 17.5878ZM116.902 17.0262L120.259 17.2478L120.391 15.2522L117.033 15.0306L116.902 17.0262ZM119.347 16.0433C119.211 16.6873 118.937 17.2347 118.525 17.7041L120.029 19.0231C120.674 18.288 121.099 17.4263 121.304 16.4567L119.347 16.0433ZM118.525 17.7046C118.118 18.1692 117.577 18.55 116.874 18.8342L117.623 20.6885C118.579 20.3022 119.391 19.7512 120.029 19.0226L118.525 17.7046ZM116.877 18.8329C116.194 19.1062 115.373 19.2557 114.394 19.2557V21.2557C115.573 21.2557 116.655 21.0757 117.62 20.6898L116.877 18.8329Z" fill="black" mask="url(#path-1-outside-1_1134_2875)"/>
</g>
<defs>
<filter id="filter0_d_1134_2875" x="0.517044" y="0.548294" width="125.025" height="28.7074" filterUnits="userSpaceOnUse" color-interpolation-filters="sRGB">
<feFlood flood-opacity="0" result="BackgroundImageFix"/>
<feColorMatrix in="SourceAlpha" type="matrix" values="0 0 0 0 0 0 0 0 0 0 0 0 0 0 0 0 0 0 127 0" result="hardAlpha"/>
<feOffset dy="4"/>
<feGaussianBlur stdDeviation="2"/>
<feComposite in2="hardAlpha" operator="out"/>
<feColorMatrix type="matrix" values="0 0 0 0 0 0 0 0 0 0 0 0 0 0 0 0 0 0 0.25 0"/>
<feBlend mode="normal" in2="BackgroundImageFix" result="effect1_dropShadow_1134_2875"/>
<feBlend mode="normal" in="SourceGraphic" in2="effect1_dropShadow_1134_2875" result="shape"/>
</filter>
</defs>
</svg>
